<svg width="716" height="721" viewBox="0 0 716 721" fill="none" xmlns="http://www.w3.org/2000/svg">
<path d="M708 313.3H627C622.4 313.3 618 315.3 614.9 318.8L396 571.1V8C396 3.6 392.4 0 388 0H328C323.6 0 320 3.6 320 8V571.1L101.1 318.8C98.1 315.3 93.7 313.3 89 313.3H7.99999C1.19999 313.3 -2.50001 321.4 1.99999 326.5L333.9 709C336.9 712.461 340.609 715.237 344.776 717.139C348.943 719.042 353.47 720.026 358.05 720.026C362.63 720.026 367.157 719.042 371.324 717.139C375.491 715.237 379.2 712.461 382.2 709L714 326.5C718.5 321.3 714.8 313.3 708 313.3Z" fill="#E74C3C"/>
</svg>
